<svg width="220" height="78" viewBox="0 0 220 78" fill="none" xmlns="http://www.w3.org/2000/svg">
<path d="M44.6926 42.6364C44.4482 42.5753 44.0611 42.9014 43.4297 43.5536C43.226 43.7574 43.0019 43.9612 42.7574 44.1854C41.8408 44.9599 40.5574 45.7547 38.7648 46.6514C37.7056 43.1052 33.8148 41.3728 30.1889 41.4136C27.9482 41.4544 25.9315 41.9231 24.1593 42.5549C28.05 39.8239 31.4111 36.2165 31.513 31.8754C31.6148 27.6974 28.3148 25.0275 24.4648 25.4555C18.5371 26.1077 14.7889 33.567 13.6685 39.5182C13.7093 38.6418 13.7093 37.847 13.7093 37.1337C13.7093 34.3619 12.5889 31.4271 11.1222 30.4692C9.85928 29.6336 8.22966 30.3265 8.02595 31.6716C7.88336 32.6092 8.37225 33.2817 8.61669 33.4651C9.24817 34.0562 9.83891 33.7709 10.5519 34.4027C11.3056 35.0752 12.3241 36.7057 12.3241 39.0698C12.3241 42.6161 11.1834 46.7126 11.1834 50.9518C11.1834 53.7847 11.4889 56.5565 12.4871 58.0646C12.8334 58.5945 13.8722 59.0021 14.626 58.6964C15.5426 58.3296 15.6852 57.2698 15.4408 56.3934C14.9519 54.6814 14.1778 51.1148 14.1778 47.5686C14.1778 44.7764 14.5241 42.0047 15.1352 39.4571C16.4593 33.6486 19.2908 27.4325 24.4241 26.9026C26.8482 26.658 28.4167 29.2056 28.213 31.8754C28.0704 33.5263 27.5 35.9923 26.4815 37.8877C25.3 40.1908 23.5278 41.862 21.9185 42.6161C21.4093 42.6976 19.5352 42.8606 18.7408 43.4313C18.476 43.6351 18.2926 43.9612 18.2926 44.3077C18.2926 45.1025 19.0056 45.6732 19.6574 45.6324C20.5741 45.6324 21.4704 44.8579 22.0815 44.3688C24.363 43.3702 26.8889 42.5957 29.1908 42.5345C32.6334 42.4326 35.4241 44.6338 35.5667 48.18C32.776 49.4232 29.7 50.6461 27.0111 52.0319C23.2222 53.9681 20.126 56.0673 19.9222 59.0429C19.7389 61.7535 22.0204 62.8133 24.5056 62.7114C30.7185 62.4261 38.5815 55.3744 39.0093 49.1787C39.05 48.6691 39.0093 48.2004 38.9685 47.752C40.5371 46.9164 41.6167 46.3457 42.5741 45.6936C43.1037 45.3267 43.5722 44.9598 44.0611 44.4707C45.0797 43.5128 45.1 42.6772 44.6926 42.6364ZM24.1797 61.1829C22.8963 61.244 21.4093 60.653 21.5111 59.2671C21.7148 56.8418 24.0982 54.8649 27.4593 53.1121C29.8426 51.8893 32.7556 50.6868 35.5056 49.4436C34.9148 54.6611 29.5982 60.9383 24.1797 61.1829Z" fill="#FD5A47"/>
<path d="M45.8945 29.2871C44.8148 29.3279 43.7556 30.5915 43.7556 31.7532C43.7556 32.9556 44.713 33.6282 45.4463 33.6282C46.5463 33.5874 47.7074 32.4257 47.7074 31.1825C47.687 29.7966 46.8315 29.2871 45.8945 29.2871ZM52.0056 44.5522C51.8426 44.5319 51.6389 44.6134 51.537 45.0618C51.4963 45.286 51.4352 45.5305 51.3537 45.7955C50.6408 48.5265 48.8889 53.051 47.2389 53.1937C44.5907 53.4178 45.4056 44.5726 46.0778 41.862C46.3222 40.9652 45.4056 40.2519 44.55 40.2927C43.9593 40.3334 43.45 40.6595 43.2463 41.434C43.0833 42.0047 42.9 42.9829 42.7574 44.165C42.6759 44.6541 42.6352 45.1637 42.5945 45.6936C42.2278 50.1366 42.6352 55.9654 46.5667 55.4559C48.8278 55.1502 50.5185 51.8893 51.4759 48.7914C51.863 47.5482 52.1278 46.3457 52.25 45.3471C52.3315 44.8783 52.2296 44.6134 52.0056 44.5522Z" fill="#FD5A47"/>
<path d="M71.4593 44.8172C71.113 44.6745 70.9093 45.021 70.7463 45.4286C70.7259 45.4897 70.7056 45.5305 70.6852 45.5712C69.8704 47.6093 68.3426 51.7058 67.1 51.7058C65.4704 51.7058 64.7371 46.631 63.8204 43.1867C63.4537 41.76 62.863 39.885 61.2741 39.885C59.9704 39.885 58.6056 42.1677 58.0963 43.2886C56.6296 46.5495 55.1019 50.911 54.7556 51.6651C54.1037 51.6651 54.0426 43.3905 54.1445 40.7206C54.1852 40.0481 53.5741 39.457 52.8204 39.457C52.0056 39.457 51.3537 40.0888 51.3537 40.8633C51.3334 42.5345 51.313 44.1854 51.3537 45.8158C51.3741 46.8145 51.3945 47.8335 51.4759 48.8321C51.5574 50.1569 51.6796 51.4816 51.8426 52.786C51.9037 53.2955 52.0871 54.1515 52.3519 54.7833C52.7185 55.6393 53.4111 55.9858 54.3278 55.6393C55.2445 55.3132 55.6315 53.642 56.4463 51.1963C57.6685 47.5685 59.6241 42.1473 60.3371 42.1473C61.3148 42.1473 61.7222 54.0292 65.8982 54.0904C67.7315 54.0904 69.1574 52.0523 70.1148 49.9735C70.8482 48.3634 71.3167 46.7126 71.5204 45.9177C71.6426 45.3063 71.6833 44.9191 71.4593 44.8172Z" fill="#FD5A47"/>
<path d="M89.9556 44.8783C89.7926 44.7764 89.5074 44.8783 89.2426 45.3063C89.0593 45.5917 88.8963 45.877 88.713 46.1419C87.5315 47.8743 86.3908 49.0564 85.0463 50.2181C85.0056 47.752 84.8019 45.6732 84.5982 44.1446C84.3334 42.2085 84.15 41.0671 83.3963 41.006C83.1926 41.006 83.0297 41.0264 82.826 41.0671C82.6223 38.703 80.3611 38.1323 79.0371 38.1323C74.9426 38.1323 71.9685 41.6378 70.726 45.4082C70.7056 45.4694 70.6852 45.5101 70.6648 45.5509C70.3185 46.6311 70.1148 47.7316 70.0741 48.771C70.0537 49.1787 70.0537 49.5659 70.0741 49.9531C70.2167 52.3988 71.3574 54.5795 74.3315 54.5184C77.5297 54.498 80.5241 49.8512 81.8685 45.5509C82.0722 47.7112 82.276 49.8512 82.2148 52.4599C76.776 56.4953 69.9519 60.3065 69.2389 66.8487C68.7908 70.6599 71.7241 73.7374 75.3093 73.7374C78.3852 73.7374 80.5241 71.5363 81.7871 69.0906C83.8241 65.1164 84.3945 59.6747 84.6389 57.6366C84.8834 55.5578 85.0056 53.6216 85.0463 51.8689C86.2482 50.8703 87.3278 49.7697 88.1834 48.7507C89.1 47.6909 89.7519 46.6718 90.0371 45.877C90.2815 45.3471 90.1593 44.9802 89.9556 44.8783ZM81.2778 44.1446C79.8926 48.2615 77.1834 52.7045 75.0037 52.7657C73.2111 52.8064 73.0278 50.9314 73.1297 49.3621C73.3334 45.6528 75.9204 39.4774 79.0982 39.4367C79.7704 39.4367 80.9111 39.6609 81.6852 41.3729C81.7871 41.5767 81.8482 41.7805 81.9297 41.9028C81.7463 42.7384 81.5223 43.4517 81.2778 44.1446ZM81.9297 56.638C81.7871 57.9424 80.626 72.0662 74.6371 72.0662C72.4167 72.0662 70.9908 69.8651 71.1741 67.3378C71.4797 62.0185 77.4685 57.3921 82.1741 54.07L81.9297 56.638Z" fill="#FD5A47"/>
<path d="M106.659 41.9028C106.456 41.9028 106.211 42.0047 105.987 42.5142C105.233 44.0427 103.889 45.0414 102.259 45.449C102.3 45.0414 102.3 44.6338 102.3 44.2873C102.239 41.4748 100.894 38.1323 97.7574 38.1323C96.3722 38.1323 94.8037 39.0087 94.1111 40.2723C93.8463 40.2723 93.5408 40.3334 93.3982 40.3742C91.5445 40.9449 89.6093 43.309 88.713 46.1419C88.4278 46.9775 88.2648 47.8539 88.2037 48.7507C88.2037 48.7914 88.1834 48.8322 88.1834 48.8526C87.9797 52.2969 89.8537 56.0062 93.9482 55.8024C98.2056 55.5578 101.302 50.9722 102.096 46.6107C104.48 46.1012 106.496 44.6745 106.924 42.5346C107.006 42.2492 106.863 41.9028 106.659 41.9028ZM94.5593 53.8662C92.5426 53.9274 91.2593 51.8893 91.1371 49.5863C90.9741 46.1216 92.2982 43.2071 93.8056 41.7397C93.9482 44.3892 96.6982 46.9775 100.589 46.8145C99.9778 50.055 98.1037 53.7643 94.5593 53.8662ZM100.752 45.5713C98.5519 45.5713 96.6778 44.2465 96.6778 41.9435C96.6778 41.0264 97.35 39.5386 98.45 39.5386C99.7334 39.5386 100.833 41.8008 100.833 44.4911C100.833 44.858 100.793 45.2044 100.752 45.5713Z" fill="#FD5A47"/>
<path d="M117.496 47.589C117.496 44.7969 117.822 42.0251 118.454 39.4775C118.759 38.0916 119.167 36.665 119.676 35.2995C119.146 35.3606 118.617 35.4421 118.087 35.544C117.598 36.8688 117.231 38.2343 116.987 39.4979C117.028 38.6215 117.028 37.8267 117.028 37.1133C117.028 36.665 117.007 36.237 116.946 35.7886C116.376 35.9516 115.826 36.1758 115.317 36.4815C115.276 36.5019 115.235 36.5223 115.215 36.5631C115.459 37.256 115.643 38.112 115.643 39.0495C115.643 42.5957 114.522 46.6923 114.522 50.9314C114.522 53.7644 114.828 56.5361 115.826 58.0443C116.172 58.5742 117.231 58.9818 117.965 58.6761C118.881 58.3092 119.024 57.2495 118.78 56.3731C118.27 54.7019 117.496 51.1352 117.496 47.589ZM148.011 42.6365C147.767 42.5754 147.359 42.9015 146.748 43.5536C146.626 43.6963 146.483 43.8186 146.32 43.9612C145.383 44.7969 144.039 45.6528 142.083 46.6719C141.024 43.1256 137.133 41.3933 133.507 41.434C131.246 41.4748 129.25 41.9436 127.478 42.5754C131.369 39.8443 134.73 36.237 134.831 31.8959V31.7736C133.731 31.3864 132.631 31.1214 131.531 30.938C131.552 31.101 131.552 31.2845 131.552 31.4679C133.12 31.6717 133.894 31.9978 134.22 32.385C133.752 32.7926 133.243 33.0372 132.713 33.2614C132.224 33.4856 131.735 33.669 131.226 33.832C130.941 35.1772 130.452 36.6853 129.8 37.9286C128.619 40.2316 126.846 41.9028 125.237 42.6569C124.728 42.7384 122.854 42.9015 122.059 43.4721C121.794 43.6759 121.611 44.002 121.611 44.3485C121.611 45.1433 122.324 45.714 122.976 45.6732C123.893 45.6732 124.789 44.8988 125.4 44.4096C127.681 43.411 130.207 42.6365 132.509 42.5754C135.952 42.4735 138.743 44.6746 138.885 48.2208C136.094 49.464 133.019 50.6869 130.33 52.0728C126.541 54.0089 123.444 56.1081 123.241 59.0837C123.078 61.7943 125.359 62.8541 127.844 62.7522C134.037 62.4669 141.92 55.4152 142.348 49.2195C142.389 48.7099 142.348 48.2412 142.307 47.7928C143.774 46.998 144.813 46.4681 145.709 45.8567C146.3 45.4694 146.83 45.0414 147.38 44.5115C148.378 43.5129 148.419 42.6773 148.011 42.6365ZM127.498 61.1829C126.215 61.2441 124.748 60.653 124.85 59.2671C125.054 56.8418 127.437 54.8649 130.798 53.1122C133.181 51.8893 136.074 50.6869 138.844 49.4437C138.233 54.6611 132.917 60.9384 127.498 61.1829Z" fill="#FD5A47"/>
<path d="M164.491 43.9205C164.328 43.9205 164.083 44.1243 163.88 44.6542C163.859 44.7153 163.819 44.7968 163.798 44.8987C163.289 46.2235 161.496 50.7684 160.356 50.7684C158.583 50.7684 158.237 42.2492 158.237 41.2506C158.278 40.3538 157.748 39.987 157.219 39.987C156.73 39.987 156.2 40.2519 155.915 40.6188C155.182 39.4775 153.939 38.7234 152.554 38.6826C151.841 38.6826 151.087 38.8253 150.354 39.1921C148.439 40.0889 147.135 41.9231 146.32 43.9612C146.076 44.5726 145.872 45.2044 145.73 45.8362C145.444 46.9368 145.281 48.0374 145.241 49.0768C145.078 52.2154 146.259 55.9858 149.396 56.0266C153.206 56.0673 155.161 50.1569 155.935 46.2031C156.18 49.301 157.035 53.3771 159.337 53.3771C161.252 53.3771 162.881 50.0958 163.839 47.4871C164.287 46.2846 164.572 45.2452 164.694 44.6949C164.817 44.2058 164.715 43.9205 164.491 43.9205ZM150.394 53.7236C148.113 53.7236 148.174 49.9124 148.235 48.3431C148.378 45.5713 149.743 39.8851 152.798 39.9258C153.919 39.9666 154.469 40.9856 154.733 42.025C154.896 42.6976 154.998 43.2887 155.12 43.7574C154.652 47.4871 152.92 53.7236 150.394 53.7236Z" fill="#FD5A47"/>
<path d="M181.806 44.0221C181.48 44.8577 181.194 45.6322 180.869 46.3863C180.644 46.9162 180.4 47.4461 180.094 48.0167C179.381 49.4434 178.119 51.1553 176.835 51.1553C175.165 51.1553 172.272 48.7097 172.272 47.5276C172.272 47.1607 172.415 47.0588 172.843 46.7531C174.859 45.3468 177.263 43.1865 177.793 40.7408C178.2 38.662 177.039 36.8277 175.124 36.8277C170.663 36.8277 167.485 44.7762 166.915 49.586C166.65 47.8944 166.589 46.1213 166.589 44.2463C166.63 38.3359 167.261 33.7706 168.157 27.5545C168.259 26.8208 167.567 26.1075 166.915 26.0871C166.304 26.0463 165.591 26.5966 165.489 27.2488C164.47 33.1592 163.92 38.0913 163.819 44.0832C163.819 44.3482 163.819 44.6131 163.819 44.8985C163.798 45.6933 163.819 46.5697 163.859 47.4664C163.982 50.0955 164.389 52.9692 165.387 54.8442C165.754 55.5372 166.589 55.8429 167.22 55.7818C167.832 55.7002 168.341 55.3538 168.28 54.722C168.28 54.6201 168.239 54.4978 168.076 54.1513C167.791 52.6431 168.117 49.7491 168.891 47.0181C170.052 42.7993 172.17 38.9065 173.657 38.9065C174.452 38.9065 174.798 39.8644 174.798 40.7612C174.798 42.6973 173.148 44.9392 171.356 46.4678C170.541 47.1403 170.052 47.6702 170.032 48.302C170.032 48.5466 170.093 48.8116 170.235 49.0969C171.294 51.3388 173.474 53.9475 175.857 53.9475C177.65 53.9475 179.3 51.9706 180.543 49.6675C181.561 47.7721 182.294 45.6322 182.58 44.1648C182.722 43.2476 182.07 43.2884 181.806 44.0221Z" fill="#FD5A47"/>
<path d="M195.291 44.5116C195.087 44.5116 194.843 44.7766 194.68 45.4084C194.619 45.6325 194.557 45.8567 194.496 46.0605C192.948 51.0334 189.648 53.4383 187.876 53.9886C185.941 54.5797 184.087 53.3772 183.68 50.9519C183.476 49.7494 183.496 48.4247 183.741 47.1H184.006C185.554 47.1 189.832 45.3268 191.115 43.0646C191.42 42.5143 191.685 41.801 191.685 41.0265C191.685 40.6189 191.624 40.1909 191.482 39.7833C191.074 38.642 189.872 38.1528 188.691 38.1528C186.654 38.1528 184.637 39.7221 183.517 41.0877C182.132 42.7793 181.296 44.5116 180.848 46.3663C180.644 47.2426 180.522 48.119 180.482 49.0361C180.482 49.2399 180.482 49.4437 180.502 49.6272C180.563 51.6245 180.97 52.8065 181.582 53.7848C182.478 55.1911 183.863 56.1897 185.533 56.2509C187.713 56.3528 189.75 54.8446 191.135 53.4791C192.541 52.1136 193.743 50.4016 194.578 48.5674C195.046 47.5483 195.393 46.4682 195.576 45.4084C195.698 44.8785 195.535 44.5524 195.291 44.5116ZM185.982 41.3526C186.633 40.3132 187.591 39.2126 188.365 39.1515C189.22 39.0903 189.567 39.8444 189.567 40.4966C189.567 41.3934 189.057 42.5551 188.446 43.513C187.326 45.2046 185.594 45.6733 184.026 45.8567C184.454 44.1855 185.207 42.6162 185.982 41.3526Z" fill="#FD5A47"/>
<path d="M211.913 42.2084C211.73 42.1065 211.424 42.1472 211.159 42.5344C210.487 43.5127 209.143 45.2043 208.124 45.2043C206.922 45.2043 206.8 41.9434 206.719 41.2912C206.556 39.7831 206.209 38.2137 204.681 38.1934C204.478 38.1934 204.233 38.1934 203.969 38.2545C200.933 38.8863 198.143 48.9136 197.735 49.6065C197.083 49.6065 197.409 44.5318 197.063 41.6581C196.961 40.7613 196.269 40.5168 195.759 40.5168C194.333 40.5168 194.374 42.1268 194.394 43.4312C194.415 44.3687 194.456 45.2451 194.476 46.0603C194.517 46.9571 194.557 47.7927 194.578 48.5671C194.68 50.381 194.802 51.9299 195.006 53.4585C195.148 54.4571 195.596 55.9653 196.676 55.8227C198.143 55.6596 198.55 52.7452 198.754 51.7873C199.772 47.1405 202.237 40.4352 203.419 40.4352C203.826 40.4352 203.724 42.9421 204.233 44.8782C204.6 46.2437 205.354 47.0386 206.657 47.0386C208.796 46.9978 211.017 44.2668 211.811 43.0032C212.056 42.616 212.076 42.3103 211.913 42.2084Z" fill="#FD5A47"/>
<path d="M134.811 31.3457C134.831 31.468 134.831 31.6107 134.831 31.7329C134.872 31.7533 134.933 31.7737 134.974 31.7737C134.913 31.631 134.872 31.4884 134.811 31.3457Z" fill="#552CB8"/>
<path d="M133.548 27.7179C132.509 24.9258 131.409 22.154 130.33 19.3618C131.776 19.2395 133.08 18.8727 134.119 17.8944C135.157 16.9161 135.646 15.6729 135.769 14.287C134.913 16.6512 133.569 18.3835 130.819 18.4651C130.717 18.2816 130.656 18.1594 130.798 17.9556C130.92 17.8944 131.104 17.8333 131.267 17.7517C133.222 16.8142 134.709 15.408 135.239 13.2476C135.769 11.128 135.483 9.06957 134.241 7.25569C133.487 6.15514 132.367 5.42143 131.165 4.87115C129.433 4.05592 127.641 3.58717 125.726 4.01516C124.687 4.23935 123.831 4.81001 123.037 5.50295C122.956 5.48257 122.874 5.48257 122.833 5.46219C122.691 5.42143 122.528 5.38067 122.385 5.31953C119.289 4.28011 116.559 4.85077 114.217 7.13341C113.443 7.86711 112.791 8.7231 112.139 9.55871C108.9 9.55871 105.62 12.3305 104.989 15.4691C104.887 15.9379 104.622 16.2843 104.337 16.6308C102.972 18.2205 102.056 20.0548 102.443 22.1947C103.115 25.8429 105.417 28.1867 108.859 29.4095C110.081 29.8375 111.344 29.7967 112.465 28.9C112.648 29.3076 112.811 29.7152 112.974 30.1024C113.157 30.0821 113.32 30.0617 113.504 30.0821C113.219 29.4095 112.954 28.7369 112.648 28.0644C113.3 27.4937 113.931 26.9638 114.543 26.4339C114.522 26.3932 114.502 26.3524 114.481 26.3116C112.281 27.5549 110.061 27.5549 107.78 26.5562C108.696 27.4122 109.735 27.9625 110.978 28.3905C110.244 28.5535 109.633 28.5739 109.043 28.472C107.189 28.1867 105.743 27.1472 104.581 25.7206C103.583 24.4774 102.85 23.0711 102.83 21.461C102.809 19.6268 103.604 18.0575 104.867 16.7531C105.07 16.5493 105.274 16.3455 105.315 16.0398C105.743 13.7775 107.046 12.1674 109.063 11.1076C109.817 10.7 110.591 10.3739 111.528 10.3332C110 13.0438 109.287 15.7952 110.713 18.8523C110.652 18.0982 110.53 17.4868 110.53 16.855C110.57 12.7992 112.404 9.59947 115.5 7.13341C117.904 5.21762 121.061 5.29915 123.506 7.15379C124.687 8.05054 125.339 9.19186 125.298 10.7204C125.237 13.003 124.565 15.143 123.648 17.2015C122.935 18.8523 121.957 20.2993 120.491 21.3795C120.206 21.6037 119.92 21.8075 119.533 22.0928C120.43 21.889 121.102 21.461 121.835 21.1757C121.937 21.3999 121.998 21.6037 121.937 21.8279C120.063 22.6431 118.189 23.4991 116.417 24.457C116.356 24.62 116.356 24.7219 116.417 24.8035C116.437 24.8442 116.478 24.885 116.539 24.9258C118.515 23.9067 120.47 22.8877 122.569 22.154C124.646 21.4203 126.785 20.9108 129.006 20.6254C129.678 22.3578 130.35 24.0698 131.043 25.7817C131.593 27.1676 132.143 28.5535 132.693 29.9598C132.244 29.9394 131.817 29.919 131.369 29.8986C129.291 29.8579 127.254 30.0617 125.257 30.5916C127.356 30.4082 129.454 30.4489 131.511 30.7954C132.611 30.9788 133.711 31.2438 134.811 31.631C134.811 31.5087 134.811 31.366 134.791 31.2438C134.424 30.1432 133.996 28.9204 133.548 27.7179ZM131.144 8.66196C130.941 11.8006 130.167 14.6539 127.58 16.692C129.352 12.0044 127.62 8.60082 123.811 5.84943C124.483 5.25839 125.319 4.95267 126.215 4.81001C128.802 4.38202 132.672 6.13475 134.078 8.37663C134.465 8.96767 134.628 9.61985 134.648 10.3128C134.75 13.7368 133.059 15.9582 130.452 17.2422C130.391 17.283 130.309 17.3034 130.065 17.3645C130.941 15.9582 131.45 14.552 131.613 13.0438C131.796 11.5356 131.735 10.0682 131.144 8.66196Z" fill="#552CB8"/>
<path d="M134.2 32.3444C133.731 32.752 133.222 32.9966 132.693 33.2208C132.204 33.445 131.715 33.6284 131.206 33.7915C128.802 34.6067 126.276 34.892 123.75 35.0551C122.385 35.1366 121 35.1366 119.656 35.2792C119.126 35.3404 118.596 35.4219 118.067 35.5238C118.026 35.5238 118.006 35.5238 117.965 35.5442C117.619 35.6257 117.252 35.7072 116.906 35.7888C116.335 35.9518 115.785 36.176 115.276 36.4817C115.235 36.5021 115.194 36.5225 115.174 36.5632C115.072 36.6244 114.95 36.6855 114.787 36.6651C114.807 36.4817 114.909 36.339 115.011 36.176C115.052 36.0741 115.113 35.9722 115.113 35.8091C114.42 33.9545 113.728 32.0183 112.933 30.1026C113.117 30.0822 113.28 30.0618 113.463 30.0822C114.176 31.8349 114.848 33.608 115.541 35.3608C115.907 35.0551 116.294 34.7493 116.681 34.4844C117.456 33.9341 118.27 33.445 119.085 33.0578C119.717 32.752 120.348 32.4871 121.02 32.2629C123.974 31.2235 127.152 30.9993 130.452 31.2846C130.859 31.3254 131.226 31.3662 131.531 31.4069C133.1 31.6311 133.894 31.9572 134.2 32.3444Z" fill="#552CB8"/>
<path d="M115.276 12.7993C115.561 12.7993 115.785 12.9827 116.009 13.1254C118.046 14.5317 119.187 16.4475 119.33 18.9135C119.431 20.6866 118.617 22.0521 117.13 23.01C116.763 23.2342 116.763 23.2342 116.396 23.1119C116.254 23.1935 116.111 23.2954 115.989 23.3769C115.256 25.0889 114.054 26.1487 112.18 26.3932C113.137 25.7818 113.952 25.0481 114.563 23.9068C113.198 24.5182 111.915 24.4978 110.631 23.9272C110.733 23.7845 110.876 23.8456 110.978 23.8456C111.12 23.8456 111.243 23.866 111.385 23.866C113.117 23.866 114.685 23.3769 115.948 22.1744C117.456 20.7682 117.802 19.0154 117.435 17.0385C117.15 15.4896 116.58 14.1241 115.419 13.0235C115.337 12.9624 115.256 12.9216 115.276 12.7993Z" fill="#552CB8"/>
</svg>
