<svg width="2290" height="1284" viewBox="0 0 2290 1284" fill="none" xmlns="http://www.w3.org/2000/svg">
<path d="M1.59583 0.665039H2289.5" stroke="#777777"/>
<path d="M1.59583 160.957H2289.5" stroke="#777777"/>
<path d="M1.59583 321.249H2289.5" stroke="#777777"/>
<path d="M1.59583 481.541H2289.5" stroke="#777777"/>
<path d="M1.59583 641.833H2289.5" stroke="#777777"/>
<path d="M1.59583 802.125H2289.5" stroke="#777777"/>
<path d="M1.59583 962.416H2289.5" stroke="#777777"/>
<path d="M1.59583 1122.71H2289.5" stroke="#777777"/>
<path d="M1.59583 1283H2289.5" stroke="#777777"/>
<path d="M1 1282.33L1 9.08971e-05" stroke="#777777"/>
<path d="M143.994 1282.33L143.994 9.08971e-05" stroke="#777777"/>
<path d="M286.988 1282.33L286.988 9.08971e-05" stroke="#777777"/>
<path d="M429.982 1282.33L429.982 9.08971e-05" stroke="#777777"/>
<path d="M572.976 1282.33L572.976 9.08971e-05" stroke="#777777"/>
<path d="M715.97 1282.33L715.97 9.08971e-05" stroke="#777777"/>
<path d="M858.964 1282.33L858.964 9.08971e-05" stroke="#777777"/>
<path d="M1001.96 1282.33L1001.96 9.08971e-05" stroke="#777777"/>
<path d="M1144.95 1282.33V9.08971e-05" stroke="#777777"/>
<path d="M1144.95 1282.33V0.00012207" stroke="#777777"/>
<path d="M1287.95 1282.33V9.08971e-05" stroke="#777777"/>
<path d="M1430.94 1282.33V9.08971e-05" stroke="#777777"/>
<path d="M1573.93 1282.33V9.08971e-05" stroke="#777777"/>
<path d="M1716.93 1282.33V9.08971e-05" stroke="#777777"/>
<path d="M1859.92 1282.33V9.08971e-05" stroke="#777777"/>
<path d="M2002.92 1282.33V9.08971e-05" stroke="#777777"/>
<path d="M2145.91 1282.33V9.08971e-05" stroke="#777777"/>
<path d="M2288.9 1282.33V9.08971e-05" stroke="#777777"/>
</svg>
